<?xml version="1.0" standalone="no"?>
<!DOCTYPE svg PUBLIC "-//W3C//DTD SVG 20010904//EN"
 "http://www.w3.org/TR/2001/REC-SVG-20010904/DTD/svg10.dtd">
<svg version="1.0" xmlns="http://www.w3.org/2000/svg"
 width="1562.000000pt" height="928.000000pt" viewBox="0 0 1562.000000 928.000000"
 preserveAspectRatio="xMidYMid meet">

<g transform="translate(0.000000,928.000000) scale(0.100000,-0.100000)"
fill="#000000" stroke="none">
<path d="M11785 9210 c-1049 -40 -1754 -141 -2090 -301 -402 -190 -591 -534
-572 -1039 9 -237 40 -403 137 -730 27 -91 64 -224 84 -296 44 -168 106 -325
214 -543 102 -207 161 -301 227 -359 337 -297 906 2 1050 553 13 47 19 105 19
175 -1 135 -29 250 -134 540 -146 404 -180 538 -180 707 0 190 46 302 174 428
89 88 149 127 286 186 325 140 798 203 1525 204 344 0 432 -3 550 -19 208 -27
388 -75 514 -137 90 -44 118 -64 187 -133 118 -118 155 -198 229 -495 44 -177
82 -276 136 -360 67 -102 129 -125 202 -75 83 56 186 263 241 479 52 210 60
276 60 510 0 194 -3 229 -22 298 -39 141 -101 235 -182 277 -91 46 -462 91
-1010 121 -254 13 -1362 20 -1645 9z"/>
<path d="M4705 9204 c-1338 -23 -3440 -94 -3680 -125 -227 -29 -445 -99 -595
-191 -302 -185 -428 -508 -340 -874 67 -282 259 -612 499 -857 181 -187 337
-257 567 -257 268 0 446 63 1154 410 234 114 488 236 565 270 412 184 835 324
1204 400 924 189 1400 67 1401 -358 0 -188 -106 -462 -313 -802 -52 -85 -140
-231 -197 -324 -245 -403 -382 -747 -421 -1060 -17 -144 -7 -345 25 -469 60
-233 232 -496 398 -607 83 -55 169 -80 277 -80 261 0 563 157 981 508 151 128
652 627 850 847 355 396 990 1149 1108 1314 192 269 307 508 358 741 25 114
23 303 -5 415 -101 412 -520 751 -1218 984 -151 50 -404 80 -863 101 -216 10
-1419 20 -1755 14z"/>
<path d="M11726 8310 c-75 -24 -116 -107 -116 -237 0 -94 13 -147 61 -251 118
-256 378 -488 587 -524 178 -30 342 75 447 287 67 135 96 227 102 325 5 73 2
93 -16 137 -27 61 -59 93 -126 126 -68 34 -108 43 -260 62 -71 9 -211 29 -310
46 -199 33 -325 43 -369 29z"/>
<path d="M5105 3173 c-155 -33 -277 -126 -320 -244 -28 -77 -26 -197 4 -264
58 -130 158 -188 461 -265 91 -23 188 -51 215 -62 141 -55 205 -133 205 -248
0 -80 -22 -132 -78 -182 -80 -72 -168 -98 -338 -98 -175 0 -324 48 -436 141
l-46 39 -21 -36 c-12 -19 -21 -41 -21 -48 0 -6 22 -28 48 -48 244 -186 685
-198 889 -23 62 53 107 150 111 241 6 100 -16 169 -73 232 -76 84 -163 124
-416 187 -243 61 -336 107 -384 189 -71 120 -23 280 104 350 78 42 143 56 266
56 135 0 214 -18 323 -72 46 -22 84 -39 86 -37 8 9 36 69 36 77 0 14 -106 67
-180 90 -139 45 -301 54 -435 25z"/>
<path d="M13995 3173 c-155 -33 -277 -126 -320 -244 -28 -77 -26 -197 4 -264
58 -130 158 -188 461 -265 91 -23 188 -51 215 -62 141 -55 205 -133 205 -248
0 -80 -22 -132 -78 -182 -80 -72 -168 -98 -338 -98 -175 0 -324 48 -436 141
l-46 39 -21 -36 c-12 -19 -21 -41 -21 -48 0 -6 22 -28 48 -48 244 -186 685
-198 889 -23 62 53 107 150 111 241 6 100 -16 169 -73 232 -76 84 -163 124
-416 187 -243 61 -336 107 -384 189 -71 120 -23 280 104 350 78 42 143 56 266
56 135 0 214 -18 323 -72 46 -22 84 -39 86 -37 8 9 36 69 36 77 0 14 -106 67
-180 90 -139 45 -301 54 -435 25z"/>
<path d="M960 3173 c0 -5 145 -333 321 -731 l322 -723 56 3 56 3 322 725 c178
398 323 726 323 728 0 1 -26 2 -57 0 l-58 -3 -290 -652 c-159 -359 -292 -653
-295 -653 -3 0 -135 295 -295 655 l-290 655 -57 0 c-32 0 -58 -3 -58 -7z"/>
<path d="M3420 2450 l0 -730 55 0 55 0 0 730 0 730 -55 0 -55 0 0 -730z"/>
<path d="M6962 2673 c4 -500 4 -509 27 -578 85 -259 267 -385 556 -385 289 0
471 126 556 385 23 69 23 78 27 578 l3 507 -55 0 -56 0 0 -472 c0 -510 -4
-554 -54 -664 -31 -67 -101 -143 -165 -178 -135 -73 -377 -73 -512 0 -64 35
-134 111 -165 178 -50 110 -54 154 -54 664 l0 472 -56 0 -55 0 3 -507z"/>
<path d="M9856 3172 c-5 -8 -650 -1409 -663 -1439 -4 -10 11 -13 54 -13 l60 0
93 205 92 205 422 0 421 -1 90 -200 c50 -111 95 -203 101 -206 6 -2 34 -3 61
-1 l51 3 -333 725 -333 725 -55 3 c-31 2 -58 -1 -61 -6z m250 -538 c97 -214
178 -395 181 -401 4 -10 -74 -13 -371 -13 -207 0 -376 3 -376 7 0 3 70 162
156 352 86 190 170 375 186 411 23 51 31 62 38 49 5 -9 89 -191 186 -405z"/>
<path d="M11730 2450 l0 -730 475 0 475 0 0 50 0 50 -420 0 -420 0 0 680 0
680 -55 0 -55 0 0 -730z"/>
</g>
</svg>
